<svg xmlns="http://www.w3.org/2000/svg" version="1.1" xmlns:xlink="http://www.w3.org/1999/xlink" xmlns:svgjs="http://svgjs.dev/svgjs" width="1500" height="594" viewBox="0 0 1500 594"><g transform="matrix(1,0,0,1,-0.9090909090909918,-0.912503568579325)"><svg viewBox="0 0 396 157" data-background-color="#ffffff" preserveAspectRatio="xMidYMid meet" height="594" width="1500" xmlns="http://www.w3.org/2000/svg" xmlns:xlink="http://www.w3.org/1999/xlink"><g id="tight-bounds" transform="matrix(1,0,0,1,0.2400000000000091,0.24118360314301412)"><svg viewBox="0 0 395.52 156.51763279371397" height="156.51763279371397" width="395.52"><g><svg viewBox="0 0 395.52 156.51763279371397" height="156.51763279371397" width="395.52"><g transform="matrix(1,0,0,1,0,96.73417624252372)"><svg viewBox="0 0 395.52 59.78345655119025" height="59.78345655119025" width="395.52"><g id="textblocktransform"><svg viewBox="0 0 395.52 59.78345655119025" height="59.78345655119025" width="395.52" id="textblock"><g><svg viewBox="0 0 395.52 59.78345655119025" height="59.78345655119025" width="395.52"><g transform="matrix(1,0,0,1,0,0)"><svg width="395.52" viewBox="2.49 -37.94 252.28 38.14" height="59.78345655119025" data-palette-color="#636365"><path d="M2.49-35.99L29.88-35.99 29.88-31.98 19.14-31.98 19.14 0 13.23 0 13.23-31.98 2.49-31.98 2.49-35.99ZM58.49-35.99L64.35-35.99 64.35 0 58.49 0 58.49-16.21 44.92-16.21 44.92-20.21 58.49-20.21 58.49-35.99ZM36.96 0L36.96-35.99 42.92-35.99 42.92 0 36.96 0ZM79.49-35.99L79.49 0 73.53 0 73.53-35.99 79.49-35.99ZM105.46-35.94L117.96 0 111.91 0 102.58-26.95 93.16 0 87.05 0 99.65-35.94 105.46-35.94ZM99.26-11.43L105.8-11.43 107.22-7.47 97.89-7.47 99.26-11.43ZM136.9-35.99L164.29-35.99 164.29-31.98 153.55-31.98 153.55 0 147.64 0 147.64-31.98 136.9-31.98 136.9-35.99ZM183.77-23.19L183.77-27.78Q186.41-27.54 188.53-26.37 190.66-25.2 192.17-23.34 193.69-21.48 194.49-19.09 195.3-16.7 195.3-14.11L195.3-14.11Q195.3-12.94 195.15-11.77L195.15-11.77 178.4-11.77 178.4-16.06 189.68-16.06Q189.68-17.33 189.27-18.51 188.85-19.68 188.05-20.68 187.24-21.68 186.17-22.36 185.09-23.05 183.77-23.19L183.77-23.19ZM183.58-4.59L183.58-4.59Q184.12-4.59 184.92-4.71 185.73-4.83 186.63-5.15 187.53-5.47 188.44-5.96 189.34-6.45 190.02-7.13L190.02-7.13 192.17-3.86Q190.56-1.86 188.41-0.83 186.26 0.2 182.94 0.2L182.94 0.2Q180.26 0.2 177.91-0.9 175.57-2 173.91-3.91 172.25-5.81 171.27-8.35 170.3-10.89 170.3-13.82L170.3-13.82Q170.3-16.6 171.2-19.09 172.1-21.58 173.67-23.46 175.23-25.34 177.3-26.51 179.38-27.69 181.77-27.83L181.77-27.83 181.77-23.14Q179.97-22.8 178.79-21.68 177.62-20.56 176.96-19.12 176.3-17.68 176.03-16.16 175.77-14.65 175.77-13.57L175.77-13.57Q175.77-11.67 176.23-10.03 176.69-8.4 177.67-7.2 178.65-6.01 180.09-5.3 181.53-4.59 183.58-4.59ZM224.35-23.58L221.71-20.41Q220.98-21.29 219.68-22.05 218.39-22.8 216.24-22.95L216.24-22.95 216.24-27.64Q218.93-27.49 220.86-26.49 222.79-25.49 224.35-23.58L224.35-23.58ZM216.24 0.2L216.24-4.64Q218-4.83 219.25-5.49 220.49-6.15 221.61-7.03L221.61-7.03 223.81-3.86Q222.3-1.95 220.54-0.95 218.78 0.05 216.24 0.2L216.24 0.2ZM202.62-13.77L202.62-13.77Q202.62-16.55 203.42-18.99 204.23-21.44 205.79-23.29 207.36-25.15 209.48-26.29 211.6-27.44 214.24-27.64L214.24-27.64 214.24-22.9Q211.8-22.36 210.33-19.9 208.87-17.43 208.87-13.92L208.87-13.92Q208.87-12.11 209.24-10.52 209.6-8.94 210.29-7.71 210.97-6.49 211.97-5.66 212.97-4.83 214.24-4.64L214.24-4.64 214.24 0.2Q211.55 0.05 209.41-1.1 207.26-2.25 205.74-4.13 204.23-6.01 203.42-8.5 202.62-10.99 202.62-13.77ZM231.96 0L231.96-37.94 237.87-37.94 237.87 0 231.96 0ZM252.47-24.51L252.47-24.51Q253.3-23.68 253.76-22.58 254.23-21.48 254.45-20.29 254.67-19.09 254.72-17.87 254.77-16.65 254.77-15.48L254.77-15.48 254.77-0.98 254.77 0 248.81 0 248.81-14.99Q248.81-16.65 248.66-18.16 248.52-19.68 247.98-20.85 247.44-22.02 246.51-22.68 245.59-23.34 243.93-23.34L243.93-23.34Q243.24-23.34 242.09-23.12 240.95-22.9 239.87-22.41L239.87-22.41 239.87-26.17Q241.19-26.86 242.73-27.34 244.27-27.83 245.73-27.83L245.73-27.83Q247.93-27.83 249.44-26.93 250.96-26.03 252.47-24.51Z" opacity="1" transform="matrix(1,0,0,1,0,0)" fill="#636365" class="wordmark-text-0" data-fill-palette-color="primary" id="text-0"></path></svg></g></svg></g></svg></g></svg></g><g transform="matrix(1,0,0,1,156.44963152312752,0)"><svg viewBox="0 0 82.62073695374494 82.62073695374492" height="82.62073695374492" width="82.62073695374494"><g><svg></svg></g><g id="icon-0"><svg viewBox="0 0 82.62073695374494 82.62073695374492" height="82.62073695374492" width="82.62073695374494"><g><path transform="scale(0.82621,0.82621)" d="M30 100c-16.569 0-30-13.431-30-30v-40c0-16.569 13.431-30 30-30h40c16.569 0 30 13.431 30 30v40c0 16.569-13.431 30-30 30z" fill="#636365" fill-rule="nonzero" stroke="none" stroke-width="1" stroke-linecap="butt" stroke-linejoin="miter" stroke-miterlimit="10" stroke-dasharray="" stroke-dashoffset="0" font-family="none" font-weight="none" font-size="none" text-anchor="none" style="mix-blend-mode: normal" data-fill-palette-color="accent"></path></g><g transform="matrix(1,0,0,1,16.524147390748993,19.359531487206375)"><svg viewBox="0 0 49.57244217224695 43.90167397933217" height="43.90167397933217" width="49.57244217224695"><g><svg xmlns="http://www.w3.org/2000/svg" xmlns:xlink="http://www.w3.org/1999/xlink" version="1.1" x="0" y="0" viewBox="25.899860075925623 52.199999999999996 460.2501399240743 407.6004874176015" style="enable-background:new 0 0 512 512;" xml:space="preserve" height="43.90167397933217" width="49.57244217224695" class="icon-cg-0" data-fill-palette-color="quaternary" id="cg-0"><g fill="#ffffff" data-fill-palette-color="quaternary"><path d="M376.8 262c2.9 16.3 17.1 28.2 33.7 28.2 18.9 0 34.3-15.3 34.3-34.2 0-18.9-15.3-34.3-34.2-34.3-16.6 0-30.8 11.9-33.7 28.2H135.4c-2.9-16.3-17.1-28.2-33.7-28.2-18.9 0-34.2 15.3-34.2 34.2 0 18.9 15.3 34.2 34.2 34.2 9.1 0 17.8-3.6 24.2-10h0c5-4.9 8.3-11.3 9.5-18.2H376.8z" fill="#ffffff" data-fill-palette-color="quaternary"></path><path d="M476.1 325.7c-13.4-13.4-35.1-13.4-48.5 0 0 0 0 0 0 0h0c-5 5-8.3 11.4-9.5 18.3h-56.2c-12.6-0.1-22.8-10.4-22.8-23 0-19.2-15.5-34.9-34.8-35h-96.6c-19.2 0.1-34.8 15.8-34.8 35 0 12.6-10.2 22.9-22.8 23H94c-1.2-6.9-4.5-13.3-9.5-18.3-13.4-13.3-35-13.2-48.3 0.1-13.3 13.4-13.2 35 0.1 48.3 13.3 13.2 34.8 13.2 48.1 0 5-4.9 8.3-11.2 9.5-18.1h56.2c19.2-0.1 34.8-15.8 34.8-35 0-12.6 10.2-22.9 22.8-23h96.6c12.6 0.1 22.8 10.4 22.8 23 0 19.2 15.5 34.9 34.8 35h56.2c1.2 6.9 4.5 13.2 9.5 18.1 13.4 13.4 35.1 13.4 48.5 0C489.4 360.8 489.5 339.1 476.1 325.7z" fill="#ffffff" data-fill-palette-color="quaternary"></path><path d="M391.6 391.3c-9.1 0-17.9 3.6-24.3 10.1-5.8 5.8-9.3 13.5-9.9 21.6h-8.1c-12.7-0.1-23.9-8-28.3-19.9l-18.7-50.5c-6.2-16.5-21.9-27.5-39.6-27.6h-13c-17.6 0-33.4 11-39.6 27.5l-18.7 50.6c-4.4 11.9-15.7 19.8-28.3 19.9h-8.1c-1.5-18.7-17.9-32.6-36.6-31.1-18.7 1.5-32.6 17.9-31.1 36.6s17.9 32.6 36.6 31.1c8-0.6 15.5-4.1 21.2-9.8 4.1-4.2 7.1-9.3 8.7-14.8h9.2c17.7-0.1 33.4-11.1 39.6-27.7l18.7-50.5c4.4-11.8 15.7-19.7 28.3-19.7h13c12.6 0 23.9 7.8 28.3 19.7l18.7 50.6c6.2 16.6 21.9 27.6 39.6 27.7h9.2c1.8 5.5 4.7 10.6 8.6 14.8v-0.1c7 6.5 15.1 10 24.3 10 18.9 0.1 34.3-15.2 34.3-34.1C425.7 406.7 410.5 391.4 391.6 391.3z" fill="#ffffff" data-fill-palette-color="quaternary"></path><path d="M84.4 186.4c0 0 0.1-0.1 0.1-0.1 5-5 8.3-11.4 9.5-18.3h56.2c12.6 0.1 22.8 10.4 22.8 23 0 19.2 15.5 34.9 34.8 35h96.6c19.2-0.1 34.8-15.8 34.8-35 0-12.6 10.2-22.9 22.8-23h56.2c1.2 6.9 4.5 13.3 9.5 18.3 13.4 13.4 35.1 13.4 48.4 0 13.4-13.4 13.4-35.1 0-48.4-13.4-13.4-35-13.4-48.4 0l0 0c-5 4.9-8.3 11.2-9.5 18.1h-56.2c-19.2 0.1-34.8 15.8-34.8 35 0 12.6-10.2 22.9-22.8 23h-96.6c-12.6-0.1-22.8-10.4-22.8-23 0-19.2-15.5-34.9-34.8-35H94c-1.2-6.9-4.5-13.2-9.5-18.1-13.4-13.4-35.1-13.5-48.5-0.1-13.4 13.4-13.5 35.1-0.1 48.5C49.3 199.7 71 199.8 84.4 186.4z" fill="#ffffff" data-fill-palette-color="quaternary"></path><path d="M144.9 110.6c5.8-5.8 9.3-13.4 9.9-21.6h8.1c12.7 0.1 23.9 8 28.3 19.9l18.7 50.5c6.2 16.5 21.9 27.5 39.6 27.6h13c17.6 0 33.4-11 39.6-27.5l18.7-50.6c4.4-11.9 15.7-19.8 28.3-19.9h8.1c1.5 18.7 17.9 32.6 36.6 31.1s32.6-17.9 31.1-36.6-17.9-32.6-36.6-31.1c-8 0.6-15.5 4.1-21.2 9.8-4.1 4.2-7.1 9.3-8.7 14.8h-9.2c-17.7 0.1-33.4 11.1-39.6 27.7l-18.7 50.5c-4.4 11.8-15.7 19.7-28.3 19.7h-13c-12.6 0-23.9-7.8-28.3-19.7l-18.7-50.6c-6.2-16.6-21.9-27.6-39.6-27.7h-9.2c-1.8-5.5-4.7-10.6-8.6-14.8v0.1c-7-6.5-15.1-10-24.3-10-9.1 0-17.9 3.6-24.3 10.1-13.3 13.4-13.3 35 0.1 48.4C110 124 131.6 124 144.9 110.6z" fill="#ffffff" data-fill-palette-color="quaternary"></path></g></svg></g></svg></g></svg></g></svg></g><g></g></svg></g><defs></defs></svg><rect width="395.52" height="156.51763279371397" fill="none" stroke="none" visibility="hidden"></rect></g></svg></g></svg>